Coordinates
version=1
nRows=11
nColumns=40
inDegrees=yes

Units are S.I. units (second, meters, Newtons, ...)
Angles are in degrees.

endheader
time	pelvis_tilt	pelvis_list	pelvis_rotation	pelvis_tx	pelvis_ty	pelvis_tz	hip_flexion_r	hip_adduction_r	hip_rotation_r	knee_angle_r	knee_angle_r_beta	ankle_angle_r	subtalar_angle_r	mtp_angle_r	hip_flexion_l	hip_adduction_l	hip_rotation_l	knee_angle_l	knee_angle_l_beta	ankle_angle_l	subtalar_angle_l	mtp_angle_l	lumbar_extension	lumbar_bending	lumbar_rotation	arm_flex_r	arm_add_r	arm_rot_r	elbow_flex_r	pro_sup_r	wrist_flex_r	wrist_dev_r	arm_flex_l	arm_add_l	arm_rot_l	elbow_flex_l	pro_sup_l	wrist_flex_l	wrist_dev_l
     21.66000000	     -2.23001838	     -7.04649878	      1.22128002	      1.10985941	      0.93387379	      0.48690966	      9.54123443	      5.57216110	    -18.99379508	     12.52970735	     12.52970735	      8.81217427	      7.26624407	     -5.76800092	     28.50830233	    -16.89370343	     -2.50942502	     65.44152087	     65.44152087	     12.14940498	    -18.88469400	     15.44458982	    -10.29016359	      9.26021733	      4.17790028	      8.10545781	    -12.65145605	     -6.38377403	     33.48884593	     46.04379292	      0.00000000	      0.00000000	      5.48113365	     -7.93716247	     -0.62815932	     51.52340535	     46.25646543	      0.00000000	      0.00000000
     21.67150000	     -2.25983264	     -7.02335949	      1.36544776	      1.10859650	      0.93429000	      0.48758543	      8.56700071	      5.75982927	    -19.03376737	     11.72150887	     11.72150887	      9.03366328	      7.63412794	     -5.78248073	     29.87499471	    -16.72716715	     -2.44508356	     63.43641851	     63.43641851	     12.11837781	    -18.87057152	     15.38738034	    -10.36626009	      9.14510341	      3.93347402	     10.88347679	    -12.71559797	     -6.35596346	     35.00932736	     46.00036550	      0.00000000	      0.00000000	      3.70958584	     -7.90251607	     -0.30119664	     49.29854854	     46.19418202	      0.00000000	      0.00000000
     21.68300000	     -2.27241439	     -6.96951660	      1.51481166	      1.10739858	      0.93466312	      0.48815491	      7.53876576	      5.91829057	    -19.11849735	     10.83811326	     10.83811326	      9.24129477	      8.10001279	     -5.83211233	     30.98705153	    -16.49255598	     -2.46098078	     61.09499116	     61.09499116	     11.89799026	    -18.85127203	     15.38504660	    -10.43859284	      9.06588871	      3.73579864	     13.60932375	    -12.79414371	     -6.11549373	     36.56139249	     45.94247674	      0.00000000	      0.00000000	      2.23660457	     -7.77901309	      0.04295586	     46.44088230	     46.12855729	      0.00000000	      0.00000000
     21.69450000	     -2.34465106	     -7.00790354	      1.63712952	      1.10618090	      0.93474787	      0.48867470	      6.60277843	      6.15182233	    -19.31329630	      9.97392877	      9.97392877	      9.30346214	      8.74099818	     -6.20158638	     31.99854778	    -16.30924202	     -2.43283883	     58.50323532	     58.50323532	     11.47252776	    -18.78160007	     14.87176353	    -10.40404698	      9.09386566	      4.40347113	     15.70453941	    -13.62483720	     -4.57494171	     38.28832184	     45.79930839	      0.00000000	      0.00000000	      2.41173487	     -7.04667244	      0.37976928	     40.30241486	     46.07836430	      0.00000000	      0.00000000
     21.70600000	     -2.35578933	     -6.96890353	      1.76443746	      1.10501881	      0.93478384	      0.48910306	      5.67395956	      6.30495483	    -19.27796451	      9.24253792	      9.24253792	      9.47546135	      8.95340830	     -6.38514367	     32.74229539	    -15.98955369	     -2.43512864	     55.63972452	     55.63972452	     11.05534725	    -18.71144416	     14.84820880	    -10.49915284	      9.00889776	      4.62285605	     17.78573406	    -14.22139270	     -3.24444485	     40.91801069	     45.64025271	      0.00000000	      0.00000000	      1.71756795	     -6.67370772	      0.48515900	     36.38619733	     46.05800555	      0.00000000	      0.00000000
     21.71750000	     -2.41384125	     -6.96615823	      1.90083991	      1.10388796	      0.93457656	      0.48938867	      4.83175222	      6.47900257	    -19.24138030	      8.56927842	      8.56927842	      9.66667737	      9.13436957	     -6.54589594	     33.40519551	    -15.62912455	     -2.35845555	     52.56460062	     52.56460062	     10.57946034	    -18.58469285	     14.84629967	    -10.53747597	      8.97123587	      4.71735784	     19.88090195	    -14.74339401	     -1.99496154	     43.60352552	     45.49409987	      0.00000000	      0.00000000	      0.87723812	     -6.39777844	      0.51028858	     32.92720776	     46.04294727	      0.00000000	      0.00000000
     21.72900000	     -2.48902557	     -6.91160819	      2.04735952	      1.10278783	      0.93422490	      0.48950459	      4.08429721	      6.56353722	    -19.13014058	      8.04991368	      8.04991368	      9.94871977	      9.17013358	     -6.58597739	     33.92768701	    -15.12812979	     -2.20115672	     49.26510935	     49.26510935	     10.15929010	    -18.38985594	     15.22112797	    -10.57641818	      8.84967512	      4.51513302	     22.34441704	    -14.70509635	     -1.83851437	     45.55282108	     45.42997924	      0.00000000	      0.00000000	     -0.69015314	     -6.41031241	      0.61616063	     31.27225427	     46.00295119	      0.00000000	      0.00000000
     21.74050000	     -2.57025822	     -6.99562824	      2.24497743	      1.10183654	      0.93362484	      0.48950057	      3.29184142	      6.82142163	    -19.05954677	      7.41661643	      7.41661643	     10.13961877	      9.11515419	     -6.79555024	     34.35916941	    -14.76252049	     -2.02571293	     45.76305175	     45.76305175	      9.25222759	    -18.05467188	     14.32697063	    -10.54952423	      8.91419843	      4.73919073	     23.73611842	    -15.71993058	      0.47603688	     49.91659369	     45.18305161	      0.00000000	      0.00000000	     -1.09596790	     -6.10691207	      0.61003385	     27.24157997	     46.00606801	      0.00000000	      0.00000000
     21.75200000	     -2.64884632	     -6.98411557	      2.46304858	      1.10094791	      0.93295961	      0.48930879	      2.62700989	      6.91482853	    -18.94502542	      7.06646526	      7.06646526	     10.49019451	      8.94019972	     -6.85711364	     34.65148915	    -14.21079393	     -1.77190763	     42.13648261	     42.13648261	      8.75356711	    -17.50598791	     14.58967533	    -10.52780365	      8.83382310	      4.34668121	     25.95370747	    -15.50884973	      0.80397921	     52.42665463	     45.09466800	      0.00000000	      0.00000000	     -2.67725906	     -6.20718913	      0.62295356	     25.87346834	     45.97944259	      0.00000000	      0.00000000
     21.76350000	     -2.75252162	     -6.99189872	      2.71186084	      1.10020284	      0.93210327	      0.48896719	      1.97583604	      7.03035641	    -18.81838704	      6.70456508	      6.70456508	     10.85258935	      8.68893520	     -6.89589730	     34.86811538	    -13.68176162	     -1.56641685	     38.43431393	     38.43431393	      8.24640113	    -16.59568604	     14.60976633	    -10.47028582	      8.77702800	      3.91631163	     27.89879467	    -15.39826228	      1.61267817	     55.60029470	     44.96256708	      0.00000000	      0.00000000	     -4.18711788	     -6.28506695	      0.64813262	     24.39287622	     45.95527367	      0.00000000	      0.00000000
     21.77500000	     -2.84857288	     -7.20102490	      3.02320664	      1.09964454	      0.93095365	      0.48849858	      1.31984879	      7.37549207	    -18.58095229	      6.35009046	      6.35009046	     11.23905094	      8.19558119	     -6.84615125	     35.03569552	    -13.34613266	     -1.30152535	     34.69870239	     34.69870239	      7.09185662	    -15.49863259	     12.79492416	    -10.45418213	      8.97609029	      4.28047628	     28.20971893	    -17.57935236	      5.57028274	     63.06786726	     44.57751997	      0.00000000	      0.00000000	     -4.89397282	     -6.18141224	      0.54009512	     22.22180207	     45.99266403	      0.00000000	      0.00000000
